<svg version="1.1" id="Layer_1" xmlns="http://www.w3.org/2000/svg" xmlns:xlink="http://www.w3.org/1999/xlink" x="0px" y="0px"
	 width="100%" viewBox="0 0 250 250" enable-background="new 0 0 250 250" xml:space="preserve">
<path fill="#3B77F0" opacity="1.000000" stroke="none" 
	d="
M140.000000,251.000000 
	C93.333336,251.000000 47.166672,251.000000 1.000006,251.000000 
	C1.000004,167.666672 1.000004,84.333351 1.000002,1.000017 
	C84.333321,1.000012 167.666641,1.000012 250.999969,1.000006 
	C250.999985,84.333321 250.999985,167.666641 251.000000,250.999969 
	C214.166672,251.000000 177.333328,251.000000 140.000000,251.000000 
M61.524525,191.100906 
	C69.148529,189.429932 76.735466,187.545822 84.417694,186.209549 
	C86.931160,185.772369 90.052231,186.061325 92.281296,187.209976 
	C105.687370,194.118240 119.674934,197.043472 134.747803,195.212112 
	C174.034149,190.438797 201.286270,153.819931 194.885178,114.154526 
	C188.759247,76.194382 150.849655,49.877998 113.059357,57.352039 
	C66.188622,66.621964 42.191498,117.674141 64.825768,159.705475 
	C65.943253,161.780624 66.285118,164.738571 65.870796,167.088455 
	C64.487778,174.932587 62.595970,182.687027 61.524525,191.100906 
M68.081596,200.218002 
	C67.809418,196.994293 65.585159,197.740494 63.673386,198.144257 
	C59.567150,199.011520 55.484722,199.991486 50.978149,201.019882 
	C52.258339,195.102264 53.366646,189.979141 54.554596,184.487885 
	C51.708546,183.876282 49.395710,183.379257 46.861248,182.834610 
	C45.524895,188.418045 44.174461,193.374207 43.174492,198.400085 
	C41.696793,205.827042 46.320393,210.287888 53.849545,208.788254 
	C57.749470,208.011490 61.561142,206.725769 65.483017,206.144348 
	C69.076836,205.611526 69.482452,203.902054 68.081596,200.218002 
M104.684525,200.903748 
	C100.363937,199.233337 95.604507,198.229355 91.823479,195.739578 
	C85.841309,191.800354 80.647011,194.120148 74.731873,195.990524 
	C75.302483,198.472778 75.806892,200.667038 76.469917,203.551315 
	C87.473984,198.370422 95.212082,209.296219 106.423790,208.690216 
	C106.076103,205.969910 105.763748,203.526047 104.684525,200.903748 
M52.264648,151.054092 
	C51.645401,149.047516 51.026154,147.040955 50.310558,144.722183 
	C47.544956,145.414200 45.249271,145.988647 43.117950,146.521957 
	C43.372135,157.041260 53.364227,164.692871 48.603123,175.553619 
	C51.538723,176.201706 53.742043,176.688110 56.120422,177.213181 
	C58.108269,170.988434 60.139381,165.358810 55.895615,159.511002 
	C54.288300,157.296158 53.660324,154.370605 52.264648,151.054092 
M119.888794,40.196129 
	C117.668053,40.527466 115.447319,40.858799 113.088173,41.210785 
	C113.616524,44.162315 114.017311,46.401234 114.390533,48.486187 
	C122.340485,48.486187 129.913742,48.486187 137.753250,48.486187 
	C138.085434,46.046349 138.406967,43.684654 138.888092,40.150978 
	C132.387161,40.150978 126.596519,40.150978 119.888794,40.196129 
M138.091232,210.828720 
	C138.091232,208.344345 138.091232,205.859955 138.091232,203.515106 
	C129.689011,203.515106 122.156357,203.515106 114.271309,203.515106 
	C113.933708,205.836563 113.591576,208.189240 113.173492,211.064163 
	C121.562523,211.064163 129.427765,211.064163 138.091232,210.828720 
M48.153873,128.225647 
	C48.153873,123.653549 48.153873,119.081459 48.153873,114.195160 
	C46.060379,113.902275 43.708687,113.573280 40.882008,113.177826 
	C40.882008,122.052460 40.882008,130.328522 40.882008,138.986282 
	C44.136539,138.392838 46.482647,137.965042 48.915371,137.521454 
	C48.640255,134.375122 48.410866,131.751724 48.153873,128.225647 
M207.779816,138.363678 
	C208.911148,137.725784 211.006119,137.117050 211.026428,136.445557 
	C211.258240,128.781265 211.173798,121.107422 211.173798,113.002960 
	C207.934113,113.580170 205.580841,113.999458 203.191101,114.425240 
	C203.191101,121.651901 203.370193,128.411850 203.114426,135.155304 
	C202.989365,138.452225 205.166840,137.876114 207.779816,138.363678 
M187.013321,186.514282 
	C189.692657,183.463882 192.371994,180.413483 195.295853,177.084702 
	C192.779846,175.273804 190.825836,173.867401 188.871811,172.460999 
	C189.160156,172.969223 189.448502,173.477448 189.736847,173.985672 
	C184.333923,179.231293 178.930984,184.476929 173.212143,190.029266 
	C174.050735,191.145920 175.490341,193.062820 177.139847,195.259216 
	C180.569046,192.243240 183.541885,189.628662 187.013321,186.514282 
M193.224060,85.762878 
	C196.142670,92.713188 199.061279,99.663490 202.185608,107.103645 
	C204.273361,106.598061 206.583893,106.038521 210.062943,105.196014 
	C206.618820,96.937492 203.438980,89.312706 200.090591,81.283707 
	C197.299622,82.969254 195.473328,84.072212 193.224060,85.762878 
M199.405838,151.755981 
	C197.330444,156.581253 195.255066,161.406525 193.070984,166.484512 
	C195.155991,167.744034 197.219223,168.990417 200.142410,170.756271 
	C203.514862,162.522583 206.648163,154.872787 210.000839,146.687378 
	C206.403595,145.902390 204.090042,145.397522 201.617111,144.857880 
	C200.876373,147.283234 200.302414,149.162537 199.405838,151.755981 
M177.110336,67.310448 
	C181.314636,70.985077 185.518936,74.659706 190.123001,78.683731 
	C191.060181,77.982941 192.985458,76.543304 195.682175,74.526825 
	C189.378220,68.286751 183.508636,62.476627 177.341354,56.371826 
	C175.227448,59.288277 173.823776,61.224854 172.358841,63.245934 
	C174.059204,64.707016 175.305359,65.777802 177.110336,67.310448 
M68.562729,62.066635 
	C64.644104,66.201797 60.725475,70.336967 56.522556,74.772133 
	C59.234325,76.726929 61.184788,78.132927 63.135250,79.538925 
	C62.900585,79.070091 62.665920,78.601257 62.431255,78.132423 
	C67.753159,72.811386 73.075066,67.490349 78.711395,61.854935 
	C77.916733,60.809299 76.465469,58.899693 74.914902,56.859406 
	C72.670425,58.677814 70.875145,60.132305 68.562729,62.066635 
M93.842094,46.255405 
	C89.863121,48.200336 85.884140,50.145271 81.520729,52.278122 
	C83.045486,54.822365 84.286736,56.893539 85.457031,58.846313 
	C92.771851,55.819771 99.733368,52.939404 107.132462,49.877995 
	C106.601593,47.698112 106.039078,45.388294 105.331551,42.483017 
	C101.391136,43.778805 97.983658,44.899345 93.842094,46.255405 
M54.875229,94.492241 
	C56.257740,91.569611 57.640247,88.646973 59.100571,85.559845 
	C56.687359,84.138794 54.641273,82.933937 51.768944,81.242531 
	C48.402203,89.609566 45.330673,97.242943 42.092869,105.289551 
	C45.680340,106.095345 47.876511,106.588631 50.167027,107.103111 
	C51.711407,102.885147 53.122726,99.030602 54.875229,94.492241 
M159.547638,205.096985 
	C163.081985,203.341202 166.616333,201.585434 170.451736,199.680115 
	C168.897903,197.083740 167.655823,195.008286 166.550995,193.162170 
	C159.051147,196.275406 152.072708,199.172211 144.836227,202.176117 
	C145.438965,204.496979 146.007477,206.686096 146.747910,209.537201 
	C151.078506,208.051041 154.959274,206.719254 159.547638,205.096985 
M167.234375,57.720093 
	C168.235413,56.053440 169.236450,54.386787 170.759567,51.850945 
	C162.567917,48.487114 154.913010,45.343689 146.734711,41.985332 
	C145.917038,45.582314 145.391968,47.892193 144.968307,49.755924 
	C151.498474,52.589016 157.373947,55.183289 163.296082,57.666252 
	C164.380051,58.120724 165.653885,58.122299 167.234375,57.720093 
z"/>
<path fill="#FEFEFF" opacity="1.000000" stroke="none" 
	d="
M61.211807,190.788361 
	C62.595970,182.687027 64.487778,174.932587 65.870796,167.088455 
	C66.285118,164.738571 65.943253,161.780624 64.825768,159.705475 
	C42.191498,117.674141 66.188622,66.621964 113.059357,57.352039 
	C150.849655,49.877998 188.759247,76.194382 194.885178,114.154526 
	C201.286270,153.819931 174.034149,190.438797 134.747803,195.212112 
	C119.674934,197.043472 105.687370,194.118240 92.281296,187.209976 
	C90.052231,186.061325 86.931160,185.772369 84.417694,186.209549 
	C76.735466,187.545822 69.148529,189.429932 61.211807,190.788361 
z"/>
<path fill="#F9FBFF" opacity="1.000000" stroke="none" 
	d="
M68.168503,200.625122 
	C69.482452,203.902054 69.076836,205.611526 65.483017,206.144348 
	C61.561142,206.725769 57.749470,208.011490 53.849545,208.788254 
	C46.320393,210.287888 41.696793,205.827042 43.174492,198.400085 
	C44.174461,193.374207 45.524895,188.418045 46.861248,182.834610 
	C49.395710,183.379257 51.708546,183.876282 54.554596,184.487885 
	C53.366646,189.979141 52.258339,195.102264 50.978149,201.019882 
	C55.484722,199.991486 59.567150,199.011520 63.673386,198.144257 
	C65.585159,197.740494 67.809418,196.994293 68.168503,200.625122 
z"/>
<path fill="#F8FAFE" opacity="1.000000" stroke="none" 
	d="
M105.067963,200.992981 
	C105.763748,203.526047 106.076103,205.969910 106.423790,208.690216 
	C95.212082,209.296219 87.473984,198.370422 76.469917,203.551315 
	C75.806892,200.667038 75.302483,198.472778 74.731873,195.990524 
	C80.647011,194.120148 85.841309,191.800354 91.823479,195.739578 
	C95.604507,198.229355 100.363937,199.233337 105.067963,200.992981 
z"/>
<path fill="#F7FAFE" opacity="1.000000" stroke="none" 
	d="
M52.425301,151.411545 
	C53.660324,154.370605 54.288300,157.296158 55.895615,159.511002 
	C60.139381,165.358810 58.108269,170.988434 56.120422,177.213181 
	C53.742043,176.688110 51.538723,176.201706 48.603123,175.553619 
	C53.364227,164.692871 43.372135,157.041260 43.117950,146.521957 
	C45.249271,145.988647 47.544956,145.414200 50.310558,144.722183 
	C51.026154,147.040955 51.645401,149.047516 52.425301,151.411545 
z"/>
<path fill="#F7F9FE" opacity="1.000000" stroke="none" 
	d="
M120.347336,40.173553 
	C126.596519,40.150978 132.387161,40.150978 138.888092,40.150978 
	C138.406967,43.684654 138.085434,46.046349 137.753250,48.486187 
	C129.913742,48.486187 122.340485,48.486187 114.390533,48.486187 
	C114.017311,46.401234 113.616524,44.162315 113.088173,41.210785 
	C115.447319,40.858799 117.668053,40.527466 120.347336,40.173553 
z"/>
<path fill="#F6F9FE" opacity="1.000000" stroke="none" 
	d="
M137.692108,210.946442 
	C129.427765,211.064163 121.562523,211.064163 113.173492,211.064163 
	C113.591576,208.189240 113.933708,205.836563 114.271309,203.515106 
	C122.156357,203.515106 129.689011,203.515106 138.091232,203.515106 
	C138.091232,205.859955 138.091232,208.344345 137.692108,210.946442 
z"/>
<path fill="#F6F9FE" opacity="1.000000" stroke="none" 
	d="
M48.167671,128.676987 
	C48.410866,131.751724 48.640255,134.375122 48.915371,137.521454 
	C46.482647,137.965042 44.136539,138.392838 40.882008,138.986282 
	C40.882008,130.328522 40.882008,122.052460 40.882008,113.177826 
	C43.708687,113.573280 46.060379,113.902275 48.153873,114.195160 
	C48.153873,119.081459 48.153873,123.653549 48.167671,128.676987 
z"/>
<path fill="#F7F9FE" opacity="1.000000" stroke="none" 
	d="
M207.377289,138.293091 
	C205.166840,137.876114 202.989365,138.452225 203.114426,135.155304 
	C203.370193,128.411850 203.191101,121.651901 203.191101,114.425240 
	C205.580841,113.999458 207.934113,113.580170 211.173798,113.002960 
	C211.173798,121.107422 211.258240,128.781265 211.026428,136.445557 
	C211.006119,137.117050 208.911148,137.725784 207.377289,138.293091 
z"/>
<path fill="#F7F9FE" opacity="1.000000" stroke="none" 
	d="
M186.764023,186.764175 
	C183.541885,189.628662 180.569046,192.243240 177.139847,195.259216 
	C175.490341,193.062820 174.050735,191.145920 173.212143,190.029266 
	C178.930984,184.476929 184.333923,179.231293 189.736847,173.985672 
	C189.448502,173.477448 189.160156,172.969223 188.871811,172.460999 
	C190.825836,173.867401 192.779846,175.273804 195.295853,177.084702 
	C192.371994,180.413483 189.692657,183.463882 186.764023,186.764175 
z"/>
<path fill="#F7FAFE" opacity="1.000000" stroke="none" 
	d="
M193.435547,85.469025 
	C195.473328,84.072212 197.299622,82.969254 200.090591,81.283707 
	C203.438980,89.312706 206.618820,96.937492 210.062943,105.196014 
	C206.583893,106.038521 204.273361,106.598061 202.185608,107.103645 
	C199.061279,99.663490 196.142670,92.713188 193.435547,85.469025 
z"/>
<path fill="#F7FAFE" opacity="1.000000" stroke="none" 
	d="
M199.567139,151.398895 
	C200.302414,149.162537 200.876373,147.283234 201.617111,144.857880 
	C204.090042,145.397522 206.403595,145.902390 210.000839,146.687378 
	C206.648163,154.872787 203.514862,162.522583 200.142410,170.756271 
	C197.219223,168.990417 195.155991,167.744034 193.070984,166.484512 
	C195.255066,161.406525 197.330444,156.581253 199.567139,151.398895 
z"/>
<path fill="#F9FBFF" opacity="1.000000" stroke="none" 
	d="
M176.830933,67.079514 
	C175.305359,65.777802 174.059204,64.707016 172.358841,63.245934 
	C173.823776,61.224854 175.227448,59.288277 177.341354,56.371826 
	C183.508636,62.476627 189.378220,68.286751 195.682175,74.526825 
	C192.985458,76.543304 191.060181,77.982941 190.123001,78.683731 
	C185.518936,74.659706 181.314636,70.985077 176.830933,67.079514 
z"/>
<path fill="#F9FBFF" opacity="1.000000" stroke="none" 
	d="
M68.821289,61.826714 
	C70.875145,60.132305 72.670425,58.677814 74.914902,56.859406 
	C76.465469,58.899693 77.916733,60.809299 78.711395,61.854935 
	C73.075066,67.490349 67.753159,72.811386 62.431255,78.132423 
	C62.665920,78.601257 62.900585,79.070091 63.135250,79.538925 
	C61.184788,78.132927 59.234325,76.726929 56.522556,74.772133 
	C60.725475,70.336967 64.644104,66.201797 68.821289,61.826714 
z"/>
<path fill="#F7F9FE" opacity="1.000000" stroke="none" 
	d="
M94.209137,46.137642 
	C97.983658,44.899345 101.391136,43.778805 105.331551,42.483017 
	C106.039078,45.388294 106.601593,47.698112 107.132462,49.877995 
	C99.733368,52.939404 92.771851,55.819771 85.457031,58.846313 
	C84.286736,56.893539 83.045486,54.822365 81.520729,52.278122 
	C85.884140,50.145271 89.863121,48.200336 94.209137,46.137642 
z"/>
<path fill="#F7FAFE" opacity="1.000000" stroke="none" 
	d="
M54.704636,94.834152 
	C53.122726,99.030602 51.711407,102.885147 50.167027,107.103111 
	C47.876511,106.588631 45.680340,106.095345 42.092869,105.289551 
	C45.330673,97.242943 48.402203,89.609566 51.768944,81.242531 
	C54.641273,82.933937 56.687359,84.138794 59.100571,85.559845 
	C57.640247,88.646973 56.257740,91.569611 54.704636,94.834152 
z"/>
<path fill="#F7F9FE" opacity="1.000000" stroke="none" 
	d="
M159.193832,205.242218 
	C154.959274,206.719254 151.078506,208.051041 146.747910,209.537201 
	C146.007477,206.686096 145.438965,204.496979 144.836227,202.176117 
	C152.072708,199.172211 159.051147,196.275406 166.550995,193.162170 
	C167.655823,195.008286 168.897903,197.083740 170.451736,199.680115 
	C166.616333,201.585434 163.081985,203.341202 159.193832,205.242218 
z"/>
<path fill="#F8FAFE" opacity="1.000000" stroke="none" 
	d="
M167.037231,58.026512 
	C165.653885,58.122299 164.380051,58.120724 163.296082,57.666252 
	C157.373947,55.183289 151.498474,52.589016 144.968307,49.755924 
	C145.391968,47.892193 145.917038,45.582314 146.734711,41.985332 
	C154.913010,45.343689 162.567917,48.487114 170.759567,51.850945 
	C169.236450,54.386787 168.235413,56.053440 167.037231,58.026512 
z"/>
</svg>